<svg width="41" height="35" viewBox="0 0 41 35" fill="none" xmlns="http://www.w3.org/2000/svg">
<path d="M17.7045 26.4268L25.1218 22.3965C26.3705 21.7247 26.3705 20.0101 25.1218 19.3207L17.7045 15.2904C16.4559 14.6187 14.9091 15.4848 14.9091 16.8283V24.8712C14.9091 26.2323 16.4559 27.0985 17.7045 26.4268ZM37.2727 6.71717H23.1277L28.6068 1.5202C28.9795 1.16667 28.9795 0.618687 28.6068 0.265152C28.2341 -0.0883839 27.6564 -0.0883839 27.2836 0.265152L20.5 6.6995L13.7164 0.265152C13.3436 -0.0883839 12.7659 -0.0883839 12.3932 0.265152C12.0205 0.618687 12.0205 1.16667 12.3932 1.5202L17.8723 6.71717H3.72727C1.67727 6.71717 0 8.29041 0 10.2525V31.4646C0 33.4091 1.67727 35 3.72727 35H37.2727C39.3227 35 41 33.4091 41 31.4646V10.2525C41 8.29041 39.3227 6.71717 37.2727 6.71717ZM35.4091 31.4646H5.59091C4.56591 31.4646 3.72727 30.6692 3.72727 29.697V12.0202C3.72727 11.048 4.56591 10.2525 5.59091 10.2525H35.4091C36.4341 10.2525 37.2727 11.048 37.2727 12.0202V29.697C37.2727 30.6692 36.4341 31.4646 35.4091 31.4646Z" fill="#FF0000"/>
</svg>
