<svg width="36" height="31" viewBox="0 0 36 31" fill="none" xmlns="http://www.w3.org/2000/svg">
<path d="M15.5455 23.204L22.0582 19.6652C23.1545 19.0754 23.1545 17.5698 22.0582 16.9645L15.5455 13.4257C14.4491 12.8359 13.0909 13.5965 13.0909 14.7761V21.8381C13.0909 23.0333 14.4491 23.7938 15.5455 23.204ZM32.7273 5.89801H20.3073L25.1182 1.33481C25.4455 1.02439 25.4455 0.543237 25.1182 0.232816C24.7909 -0.0776053 24.2836 -0.0776053 23.9564 0.232816L18 5.88248L12.0436 0.232816C11.7164 -0.0776053 11.2091 -0.0776053 10.8818 0.232816C10.5545 0.543237 10.5545 1.02439 10.8818 1.33481L15.6927 5.89801H3.27273C1.47273 5.89801 0 7.27938 0 9.00222V27.6275C0 29.3348 1.47273 30.7317 3.27273 30.7317H32.7273C34.5273 30.7317 36 29.3348 36 27.6275V9.00222C36 7.27938 34.5273 5.89801 32.7273 5.89801ZM31.0909 27.6275H4.90909C4.00909 27.6275 3.27273 26.929 3.27273 26.0754V10.5543C3.27273 9.70067 4.00909 9.00222 4.90909 9.00222H31.0909C31.9909 9.00222 32.7273 9.70067 32.7273 10.5543V26.0754C32.7273 26.929 31.9909 27.6275 31.0909 27.6275Z" fill="#FF4081"/>
</svg>
