<svg width="27" height="27" viewBox="0 0 27 27" fill="none" xmlns="http://www.w3.org/2000/svg">
<path d="M11.8849 9.13292H14.778V12.026H11.8849V9.13292ZM17.6711 9.13292H20.5642V12.026H17.6711V9.13292ZM23.4573 9.13292H26.3505V12.026H23.4573V9.13292ZM23.7901 18.1884L20.1158 17.7689C19.2334 17.6676 18.3655 17.9714 17.7434 18.5934L15.0818 21.2551C10.988 19.172 7.63198 15.8305 5.54893 11.7223L8.22507 9.04612C8.84709 8.4241 9.15086 7.55617 9.0496 6.67376L8.6301 3.02843C8.45652 1.5674 7.22694 0.468018 5.75145 0.468018H3.2489C1.61429 0.468018 0.254519 1.82778 0.355778 3.4624C1.12245 15.816 11.0025 25.6816 23.3416 26.4482C24.9762 26.5495 26.336 25.1897 26.336 23.5551V21.0526C26.3505 19.5916 25.2511 18.362 23.7901 18.1884Z" fill="#FF4081"/>
</svg>
