<svg width="25" height="28" viewBox="0 0 25 28" fill="none" xmlns="http://www.w3.org/2000/svg">
<path d="M2.63158 13.477V18.7401C2.63158 19.8322 3.51316 20.7138 4.60526 20.7138C5.69737 20.7138 6.57895 19.8322 6.57895 18.7401V13.477C6.57895 12.3849 5.69737 11.5033 4.60526 11.5033C3.51316 11.5033 2.63158 12.3849 2.63158 13.477ZM10.5263 13.477V18.7401C10.5263 19.8322 11.4079 20.7138 12.5 20.7138C13.5921 20.7138 14.4737 19.8322 14.4737 18.7401V13.477C14.4737 12.3849 13.5921 11.5033 12.5 11.5033C11.4079 11.5033 10.5263 12.3849 10.5263 13.477ZM1.97368 27.2928H23.0263C24.1184 27.2928 25 26.4112 25 25.3191C25 24.227 24.1184 23.3454 23.0263 23.3454H1.97368C0.881579 23.3454 0 24.227 0 25.3191C0 26.4112 0.881579 27.2928 1.97368 27.2928ZM18.4211 13.477V18.7401C18.4211 19.8322 19.3026 20.7138 20.3947 20.7138C21.4868 20.7138 22.3684 19.8322 22.3684 18.7401V13.477C22.3684 12.3849 21.4868 11.5033 20.3947 11.5033C19.3026 11.5033 18.4211 12.3849 18.4211 13.477ZM11.2763 0.305921L0.881579 5.7796C0.342105 6.05592 0 6.62171 0 7.22697C0 8.13487 0.736842 8.87171 1.64474 8.87171H23.3684C24.2632 8.87171 25 8.13487 25 7.22697C25 6.62171 24.6579 6.05592 24.1184 5.7796L13.7237 0.305921C12.9605 -0.101974 12.0395 -0.101974 11.2763 0.305921Z" fill="#FF4081"/>
</svg>
