<svg width="32" height="31" viewBox="0 0 32 31" fill="none" xmlns="http://www.w3.org/2000/svg">
<path d="M13.9721 10.7011H17.3888V14.1177H13.9721V10.7011ZM20.8054 10.7011H24.2221V14.1177H20.8054V10.7011ZM27.6388 10.7011H31.0554V14.1177H27.6388V10.7011ZM28.0317 21.3952L23.6925 20.8998C22.6504 20.7802 21.6254 21.139 20.8908 21.8736L17.7475 25.0169C12.9129 22.5569 8.94959 18.6106 6.48959 13.759L9.65001 10.5986C10.3846 9.86397 10.7433 8.83898 10.6238 7.79689L10.1283 3.49189C9.92334 1.76647 8.47126 0.46814 6.72876 0.46814H3.77334C1.84293 0.46814 0.237095 2.07397 0.356678 4.00439C1.26209 18.5936 12.93 30.2444 27.5021 31.1498C29.4325 31.2694 31.0383 29.6636 31.0383 27.7331V24.7777C31.0554 23.0523 29.7571 21.6002 28.0317 21.3952Z" fill="#FF0000"/>
</svg>
