<svg width="67" height="67" viewBox="0 0 67 67" fill="none" xmlns="http://www.w3.org/2000/svg">
<path d="M33.3333 0C14.9333 0 0 14.9333 0 33.3333C0 51.7333 14.9333 66.6667 33.3333 66.6667C51.7333 66.6667 66.6667 51.7333 66.6667 33.3333C66.6667 14.9333 51.7333 0 33.3333 0ZM33.3333 60C18.6333 60 6.66667 48.0333 6.66667 33.3333C6.66667 18.6333 18.6333 6.66667 33.3333 6.66667C48.0333 6.66667 60 18.6333 60 33.3333C60 48.0333 48.0333 60 33.3333 60ZM30 46.6667H36.6667V53.3333H30V46.6667ZM35.3667 13.4667C28.5 12.4667 22.4333 16.7 20.6 22.7667C20 24.7 21.4667 26.6667 23.5 26.6667H24.1667C25.5333 26.6667 26.6333 25.7 27.1 24.4333C28.1667 21.4667 31.3333 19.4333 34.7667 20.1667C37.9333 20.8333 40.2667 23.9333 40 27.1667C39.6667 31.6333 34.6 32.6 31.8333 36.7667C31.8333 36.8 31.8 36.8 31.8 36.8333C31.7667 36.9 31.7333 36.9333 31.7 37C31.4 37.5 31.1 38.0667 30.8667 38.6667C30.8333 38.7667 30.7667 38.8333 30.7333 38.9333C30.7 39 30.7 39.0667 30.6667 39.1667C30.2667 40.3 30 41.6667 30 43.3333H36.6667C36.6667 41.9333 37.0333 40.7667 37.6 39.7667C37.6667 39.6667 37.7 39.5667 37.7667 39.4667C38.0333 39 38.3667 38.5667 38.7 38.1667C38.7333 38.1333 38.7667 38.0667 38.8 38.0333C39.1333 37.6333 39.5 37.2667 39.9 36.9C43.1 33.8667 47.4333 31.4 46.5333 25.0333C45.7333 19.2333 41.1667 14.3333 35.3667 13.4667Z" fill="#FF4081"/>
</svg>
