<svg width="29" height="26" viewBox="0 0 29 26" fill="none" xmlns="http://www.w3.org/2000/svg">
<path d="M0.75 25.5H3.5C4.25625 25.5 4.875 24.8813 4.875 24.125V11.75C4.875 10.9937 4.25625 10.375 3.5 10.375H0.75V25.5ZM28.0163 15.71C28.1675 15.3663 28.25 14.995 28.25 14.61V13.125C28.25 11.6125 27.0125 10.375 25.5 10.375H17.9375L19.2025 3.98125C19.2712 3.67875 19.23 3.34875 19.0925 3.07375C18.7763 2.455 18.3775 1.89125 17.8825 1.39625L17.25 0.75L8.43625 9.56375C7.91375 10.0862 7.625 10.7875 7.625 11.5162V22.2962C7.625 24.0562 9.06875 25.5 10.8425 25.5H21.9938C22.9563 25.5 23.8638 24.9913 24.3587 24.1663L28.0163 15.71Z" fill="#FF4081"/>
</svg>
