<svg width="35" height="37" viewBox="0 0 35 37" fill="none" xmlns="http://www.w3.org/2000/svg">
<path d="M2.34505 7.3639C1.41788 7.35728 0.653973 8.17895 0.647476 9.18983L0.493902 33.0834C0.480907 35.1051 1.98746 36.7702 3.8418 36.7834L25.7567 36.9398C26.6839 36.9464 27.4478 36.1248 27.4543 35.1139C27.4608 34.103 26.7075 33.2705 25.7803 33.2639L5.55119 33.1195C4.62402 33.1129 3.87074 32.2804 3.87724 31.2695L4.019 9.2139C4.0255 8.20302 3.27222 7.37052 2.34505 7.3639ZM31.0502 0.216612L10.8211 0.0722039C8.96677 0.0589666 7.43896 1.70231 7.42596 3.72407L7.2842 25.7797C7.27121 27.8014 8.77776 29.4664 10.6321 29.4797L30.8612 29.6241C32.7156 29.6373 34.2434 27.994 34.2564 25.9722L34.3981 3.91661C34.4111 1.89485 32.9046 0.229849 31.0502 0.216612ZM27.5724 16.7342L14.0863 16.638C13.1591 16.6313 12.4059 15.7988 12.4124 14.788C12.4189 13.7771 13.1828 12.9554 14.1099 12.962L27.596 13.0583C28.5232 13.0649 29.2765 13.8974 29.27 14.9083C29.2635 15.9192 28.4996 16.7409 27.5724 16.7342ZM20.7821 24.038L14.0391 23.9898C13.1119 23.9832 12.3586 23.1507 12.3651 22.1398C12.3716 21.1289 13.1355 20.3073 14.0627 20.3139L20.8057 20.362C21.7329 20.3687 22.4862 21.2012 22.4797 22.212C22.4732 23.2229 21.7093 24.0446 20.7821 24.038ZM27.6197 9.38237L14.1336 9.2861C13.2064 9.27948 12.4531 8.44698 12.4596 7.4361C12.4661 6.42522 13.23 5.60355 14.1572 5.61017L27.6433 5.70644C28.5705 5.71306 29.3237 6.54556 29.3172 7.55644C29.3107 8.56732 28.5468 9.38899 27.6197 9.38237Z" fill="#FF0000"/>
</svg>
