<svg width="30" height="32" viewBox="0 0 30 32" fill="none" xmlns="http://www.w3.org/2000/svg">
<path d="M2.11592 6.33386C1.31844 6.32817 0.661388 7.03491 0.655799 7.90439L0.523706 28.4558C0.512529 30.1948 1.80835 31.6269 3.40331 31.6383L22.2528 31.7728C23.0503 31.7785 23.7074 31.0718 23.713 30.2023C23.7185 29.3328 23.0706 28.6168 22.2732 28.6111L4.8736 28.4869C4.07612 28.4812 3.42821 27.7651 3.43379 26.8956L3.55573 7.92509C3.56131 7.05561 2.9134 6.33955 2.11592 6.33386ZM26.8059 0.186313L9.40638 0.0621043C7.81142 0.0507185 6.49731 1.46419 6.48614 3.20316L6.3642 22.1737C6.35303 23.9127 7.64885 25.3448 9.24381 25.3561L26.6434 25.4804C28.2383 25.4917 29.5524 24.0783 29.5636 22.3393L29.6855 3.36877C29.6967 1.6298 28.4009 0.197699 26.8059 0.186313ZM23.8146 14.3935L12.2149 14.3107C11.4174 14.305 10.7695 13.589 10.7751 12.7195C10.7806 11.85 11.4377 11.1433 12.2352 11.149L23.8349 11.2318C24.6324 11.2374 25.2803 11.9535 25.2747 12.823C25.2691 13.6925 24.612 14.3992 23.8146 14.3935ZM17.9741 20.6756L12.1742 20.6342C11.3767 20.6285 10.7288 19.9125 10.7344 19.043C10.74 18.1735 11.3971 17.4668 12.1945 17.4725L17.9944 17.5139C18.7919 17.5196 19.4398 18.2356 19.4342 19.1051C19.4286 19.9746 18.7715 20.6813 17.9741 20.6756ZM23.8552 8.07L12.2555 7.9872C11.458 7.9815 10.8101 7.26545 10.8157 6.39597C10.8213 5.52648 11.4783 4.81975 12.2758 4.82544L23.8755 4.90825C24.673 4.91394 25.3209 5.62999 25.3153 6.49947C25.3097 7.36896 24.6527 8.07569 23.8552 8.07Z" fill="#FF4081"/>
</svg>
