<svg width="17" height="28" viewBox="0 0 17 28" fill="none" xmlns="http://www.w3.org/2000/svg">
<path d="M4.81667 10.6121V5.79545C4.81667 4.01818 6.086 2.57576 7.65 2.57576C9.214 2.57576 10.4833 4.01818 10.4833 5.79545V10.6121C11.8547 9.56894 12.75 7.80454 12.75 5.79545C12.75 2.58864 10.472 0 7.65 0C4.828 0 2.55 2.58864 2.55 5.79545C2.55 7.80454 3.44533 9.56894 4.81667 10.6121ZM15.9687 16.575L10.8233 13.6644C10.6307 13.5742 10.4267 13.5227 10.2113 13.5227H9.35V5.79545C9.35 4.72651 8.59067 3.86364 7.65 3.86364C6.70933 3.86364 5.95 4.72651 5.95 5.79545V19.6273L2.06267 18.7C1.972 18.6871 1.89267 18.6614 1.79067 18.6614C1.43933 18.6614 1.122 18.8288 0.895333 19.0864L0 20.1167L5.59867 26.4788C5.90467 26.8265 6.33533 27.0455 6.8 27.0455H14.4953C15.3453 27.0455 16.0027 26.3371 16.1273 25.397L16.9773 18.6098C16.9887 18.5197 17 18.4295 17 18.3523C17 17.5538 16.5693 16.8583 15.9687 16.575Z" fill="#FF4081"/>
</svg>
